<?xml version="1.0" encoding="utf-8"?>
<!-- Generator: Adobe Illustrator 24.1.2, SVG Export Plug-In . SVG Version: 6.00 Build 0)  -->
<svg version="1.1" xmlns="http://www.w3.org/2000/svg" xmlns:xlink="http://www.w3.org/1999/xlink" x="0px" y="0px"
	 viewBox="0 0 1440 900" style="enable-background:new 0 0 1440 900;" xml:space="preserve">
<style type="text/css">
	.st0{fill:#FFFFFF;}
	.st1{fill:#F5F8FD;}
	.st2{fill:#01C99C;}
	.st3{fill:#00B98F;}
	.st4{fill:#059C79;}
	.st5{fill:#D7E3F8;}
	.st6{fill:#69330D;}
	.st7{fill:#B3B3B3;}
	.st8{fill:#BFCDE6;}
	.st9{fill:#F4FFAB;}
	.st10{fill:#C8E065;}
	.st11{fill:#171E45;}
	.st12{fill:#343358;}
	.st13{fill:#9BE064;}
	.st14{opacity:0.5;}
	.st15{fill:#A0D175;}
	.st16{fill:#192D54;}
	.st17{display:none;}
	.st18{display:inline;}
	.st19{fill:#020202;}
	.st20{fill:#FEB08F;}
</style>
<g id="Background">
	<rect x="329.01" class="st0" width="828.84" height="900"/>
</g>
<g id="Graphic_Element">
	<g>
		<path class="st1" d="M998.69,288.01c-11.62-74.6-50.1-144.29-105.71-194.04C837.37,44.23,765.14,14.58,691.39,9.85
			c-65.77-4.22-133.91,11.77-187,51.67c-51.34,38.58-86.54,98.89-95.36,163.4c-8.07,59.04,4.93,120.66-11.24,177.94
			c-11.68,41.39-38.25,78.98-39.5,122.03c-1.22,42.05,22.26,80.77,49.51,112.31c55.41,64.13,130.33,110.4,211.65,130.69
			c81.32,20.29,168.67,14.52,246.76-16.31c28.98-11.44,56.98-26.45,80.06-47.7c33.16-30.54,54.53-72.59,67.64-116.2
			C1039.43,502.82,998.69,288.01,998.69,288.01z"/>
	</g>
	<g>
		<g>
			<path class="st2" d="M987.35,660.63c-14.36-10.59-22.23-31.77-15.81-40.91c5.09-7.25,15.47-1.66,21.51-9.43
				c7.9-10.17-5.41-25.51,3-38.26c4.62-7.01,13.25-9.34,16.96-10.35c9.4-2.54,12.22,1.08,24.16-0.8c7.9-1.24,16.53-2.47,19.69-8.5
				c3.5-6.66-3.18-12.46,0.71-21.27c0.16-0.35,3.32-7.26,9.76-9.21c8.1-2.45,12.04,5.67,21.54,7.28
				c16.88,2.87,25.36-20.13,41.84-17.09c7.05,1.3,14.74,7.21,15.29,13.52c1.09,12.42-24.97,18.69-24.72,33.39
				c0.17,9.69,11.65,13.05,10.07,21.85c-1.18,6.6-8.95,12.05-16.09,13.44c-13.15,2.55-19.67-9.57-33.88-6.41
				c-3.19,0.71-8.74,1.95-10.43,6.06c-3.57,8.65,14.47,18.77,11.7,30.24c-1.82,7.51-11.43,10.96-12.78,11.45
				c-15.73,5.65-28.95-8.96-35.43-3.63c-6.38,5.24,4.92,20.62-1.93,30.27C1025.43,672.25,1002.21,671.59,987.35,660.63z"/>
			<g>
				<path class="st3" d="M997.82,641.2c-0.2,0-0.41-0.06-0.6-0.17c-0.54-0.34-0.71-1.06-0.38-1.62
					c12.84-21.56,28.58-41.1,46.78-58.09c20.69-19.32,44.22-35.03,69.91-46.69c0.58-0.26,1.26,0,1.52,0.6
					c0.26,0.59,0,1.29-0.58,1.55c-25.47,11.56-48.78,27.13-69.29,46.28c-18.04,16.83-33.64,36.2-46.36,57.58
					C998.59,641,998.21,641.2,997.82,641.2z"/>
			</g>
		</g>
		<g>
			<path class="st3" d="M980.52,671.04c20.4-13.28,34.25-25.96,31.83-35.16c-2.46-9.36-19.95-8.02-23.11-18.37
				c-4.94-16.19,31.16-36.03,26.7-47.76c-5-13.15-55.34-0.09-59.77-12.36c-4.21-11.66,38.27-31.83,33.58-50.1
				c-2.23-8.7-14.04-12.57-17.89-13.83c-26.16-8.58-52.7,13.74-58.07,6.16c-1-1.4-0.77-3.14-0.52-5.08
				c1.13-8.78,11.8-9.5,15.96-18.79c2.37-5.28,2.53-13.1-1.18-16.85c-3.09-3.12-9.82-2.53-23.16-1.2c-8.53,0.84-7.28,1.28-9.87,1.23
				c-16.59-0.32-22.85-17.12-35.59-15.45c-0.8,0.1-8.32,0.88-9.87,5.2c-2.63,7.35,15.4,15.38,14,24.47
				c-1.85,11.94-35.23,12.79-35.58,22.2c-0.14,3.75,5,7.2,8.38,8.57c14.4,5.84,28.6-10.55,36.89-4.56
				c3.02,2.18,4.29,6.64,4.07,10.04c-0.92,14.3-28.63,14.83-34.16,32.76c-2.22,7.18-1.1,17.88,4.71,22.2
				c10.56,7.85,27.4-12.27,57.82-9.36c5.13,0.49,17.2,1.79,20.36,9.39c1.42,3.43,0.51,6.87,0.05,8.53
				c-3.6,12.88-17.62,13.61-27.47,24.61c-11.19,12.49-13.85,34.7-6.93,40.47c8.49,7.07,25.81-15.13,51.86-9.45
				c12.12,2.64,20.22,10.17,23.11,13.12C977.57,652.82,979.91,666.21,980.52,671.04z"/>
			<g>
				<path class="st4" d="M983.84,636.92c-0.45,0-0.86-0.3-0.99-0.76c-7.2-25.4-17.95-48.55-31.96-68.81
					c-9.94-14.37-20.16-25.09-38.71-44.53c-15.26-15.99-31.15-31.56-47.23-46.27c-0.42-0.39-0.46-1.05-0.08-1.48
					c0.38-0.43,1.02-0.46,1.45-0.08c16.12,14.74,32.05,30.34,47.33,46.37c18.63,19.52,28.89,30.28,38.92,44.79
					c14.14,20.45,24.99,43.81,32.26,69.44c0.16,0.56-0.16,1.14-0.7,1.3C984.03,636.91,983.94,636.92,983.84,636.92z"/>
			</g>
		</g>
		<path class="st5" d="M1025.13,806.9h-48.36c-8.33-34.15-14.33-80.18-16.5-145.71c-0.3-9.11,6.84-16.69,15.76-16.69h49.73
			c8.86,0,15.98,7.48,15.77,16.53C1040.01,726.64,1033.94,772.72,1025.13,806.9z"/>
	</g>
	<g>
		<g>
			<g>
				<g>
					<g>
						<path class="st6" d="M882.37,246.14c-23.54,19.91-100.85-5.09-141.6-40.45c-40.75-35.36-69.04-104.77-69.04-104.77
							l24.96-21.37l77.23,91.58c34.63,7.4,89.89,18.39,99.66,26.23C883.35,205.21,905.92,226.23,882.37,246.14z"/>
					</g>
				</g>
				<g>
					<g>
						<path class="st7" d="M873.58,197.37c-5.68-4.56-26.74-10.19-50.18-15.55c1.67,21.75-1.9,43.4-4.65,65.03
							c27.08,7.99,51.96,9.16,63.62-0.71C905.92,226.23,883.35,205.21,873.58,197.37z"/>
					</g>
				</g>
			</g>
			<g>
				<g>
					<g>
						<g>
							<rect x="665.41" y="506.46" class="st8" width="11.18" height="301.66"/>
						</g>
						<g>
							<rect x="616.22" y="796.69" class="st8" width="109.55" height="11.43"/>
						</g>
					</g>
				</g>
				<g>
					<rect x="488.86" y="90.18" class="st0" width="364.27" height="567.1"/>
				</g>
			</g>
			<g>
				<g>
					<g>
						<rect x="679.79" y="229.46" class="st9" width="153.19" height="6.96"/>
					</g>
				</g>
				<g>
					<g>
						<rect x="679.79" y="254.5" class="st9" width="153.19" height="6.96"/>
					</g>
				</g>
				<g>
					<g>
						<rect x="679.79" y="279.55" class="st9" width="153.19" height="6.96"/>
					</g>
				</g>
				<g>
					<g>
						<rect x="679.79" y="304.59" class="st9" width="153.19" height="6.96"/>
					</g>
				</g>
				<g>
					<g>
						<rect x="679.79" y="329.64" class="st9" width="153.19" height="6.96"/>
					</g>
				</g>
				<g>
					<g>
						<rect x="679.79" y="354.68" class="st9" width="153.19" height="6.96"/>
					</g>
				</g>
			</g>
			<g>
				<g>
					<g>
						<rect x="509.02" y="617.02" class="st9" width="153.19" height="6.96"/>
					</g>
				</g>
				<g>
					<g>
						<rect x="509.02" y="591.97" class="st9" width="153.19" height="6.96"/>
					</g>
				</g>
				<g>
					<g>
						<rect x="509.02" y="566.93" class="st9" width="153.19" height="6.96"/>
					</g>
				</g>
				<g>
					<g>
						<rect x="509.02" y="541.88" class="st9" width="153.19" height="6.96"/>
					</g>
				</g>
				<g>
					<g>
						<rect x="509.02" y="516.84" class="st9" width="153.19" height="6.96"/>
					</g>
				</g>
				<g>
					<g>
						<rect x="509.02" y="491.79" class="st9" width="153.19" height="6.96"/>
					</g>
				</g>
			</g>
			<g>
				<g>
					<polygon class="st9" points="830.63,175.8 509.02,215.6 496.91,113.38 818.53,73.59 					"/>
				</g>
				<g>
					<g>
						<polygon class="st0" points="830.36,177.36 496.63,114.94 497.19,111.82 830.91,174.24 						"/>
					</g>
					<g>
						<polygon class="st0" points="509.65,217.05 508.38,214.15 817.89,72.14 819.16,75.03 						"/>
					</g>
				</g>
			</g>
			<g>
				<g>
					
						<rect x="509.02" y="229.11" transform="matrix(-1 -1.224647e-16 1.224647e-16 -1 1175.193 590.7452)" class="st10" width="157.16" height="132.53"/>
				</g>
				<g>
					<g>
						<polygon class="st10" points="665.19,362.86 508.03,230.33 510,227.88 667.17,360.41 						"/>
					</g>
					<g>
						<polygon class="st10" points="510,362.86 508.03,360.41 665.19,227.88 667.17,230.33 						"/>
					</g>
				</g>
			</g>
			<g>
				<g>
					<rect x="675.82" y="491.79" class="st10" width="157.16" height="132.53"/>
				</g>
				<g>
					<g>
						<polygon class="st10" points="831.99,625.54 674.83,493.01 676.81,490.57 833.97,623.1 						"/>
					</g>
					<g>
						<polygon class="st10" points="676.81,625.54 674.83,623.1 831.99,490.57 833.97,493.01 						"/>
					</g>
				</g>
			</g>
			<g>
				<path class="st6" d="M696.69,79.55c-2.84-3.7-26.53-12.23-40.82,0.6c-14.27,12.82-13.4,20.81-10.04,25.38
					c3.36,4.58,31.21-1.69,39.75-13.24L696.69,79.55z"/>
			</g>
			<g>
				<g>
					<g>
						<path class="st11" d="M936.1,456.47c-16.78,61.8-33.69,122.74-54.62,157.54c2.1,54.17-17,115.21-39.8,177.45
							c-6.99,5.8-12.84,4.29-17.78-3.03c0,0-8.89-144.99-8.89-179.83c0-34.84,19.9-157.32,19.9-157.32L936.1,456.47z"/>
					</g>
				</g>
				<g>
					<g>
						<path class="st12" d="M834.91,451.27c0,0,16.51,137.63,29.64,169.22c13.13,31.59,93.57,136.39,93.57,136.39
							c10.16-0.29,13.94-3.76,15.07-10.98c-13.21-57.79-21.58-107.11-50.63-151.81c16.62-56.95,35.7-115.38,22.86-154.51
							L834.91,451.27z"/>
					</g>
				</g>
				<g>
					<g>
						<path class="st11" d="M948.6,453.71c-0.68-4.94-1.72-9.66-3.18-14.13l-110.51,11.69c0,0,0.37,3.08,1.04,8.41
							C856.78,468.69,944.22,461.82,948.6,453.71z"/>
					</g>
				</g>
				<g>
					<g>
						<path class="st13" d="M843.8,224.92c-13.88,43.31-11.22,135.32-8.89,226.35c39.34,2.29,77,0.6,112.2-6.92
							c-0.32-97.55,20.33-207.99-71.56-249.29L843.8,224.92z"/>
					</g>
				</g>
				<g class="st14">
					<g>
						<path class="st15" d="M916.82,282.1c-26.04,14.22-54,25.17-83.31,28.6c-0.26,8.96-0.4,18.27-0.45,27.84
							C869.33,331.52,908.82,318.7,916.82,282.1z"/>
					</g>
				</g>
				<g>
					<g>
						<path class="st6" d="M837.56,184.87l6.23,40.05l31.76-29.86l-9.31-10.6C866.24,184.45,849.03,155.44,837.56,184.87z"/>
					</g>
				</g>
				<g>
					<g>
						<path class="st16" d="M823.9,788.42c-10.1,4.43-25.37,4.85-41.97,14.34c-2.57,1.83-2.09,3.6,0,5.36h64.3
							c-0.08-6.65-0.86-12.9-4.19-17.65L823.9,788.42z"/>
					</g>
				</g>
				<g>
					<g>
						<path class="st16" d="M957.56,755.55c-5.4,9.79-17.27,19.61-24.82,37.45c-0.95,3.04,0.48,4.16,3.18,4.25L987,757.32
							c-4.02-5.24-8.35-9.71-13.82-11.42L957.56,755.55z"/>
					</g>
				</g>
				<g>
					<path class="st6" d="M865.41,231.37c-14.54,7.16-69.98,46.13-69.98,46.13l-50.67-75.06l-25.04,16.5c0,0,26.11,87.6,57.75,102.4
						c13.46,6.29,150.58,5,144.46-59.86C917.96,219.51,878.51,224.92,865.41,231.37z"/>
				</g>
				<g>
					<path class="st13" d="M921.92,261.48c-3.96-41.97-43.41-36.56-56.52-30.1c-7.66,3.77-26.66,16.36-42.93,27.44
						c9.3,19.65,14.61,40.85,20.16,61.91C882.68,314.64,925.4,298.31,921.92,261.48z"/>
				</g>
				<g>
					<path class="st6" d="M744.76,202.44c0,0-13.04-24.32-30.45-24.75c-17.41-0.43-42.46,3.41-37.87,12.37
						c4.59,8.96,9.18,22.26,17.53,22.22c8.35-0.04,20.87,0,20.87,0l4.87,6.65L744.76,202.44z"/>
				</g>
				<g>
					<g>
						<g>
							<path class="st6" d="M853.47,180.43c-3.96,2.01-9.68,5.23-17.14,4.94c-3.95-0.16-8.36-1.19-13.02-3.74
								c-1.13-0.62-1.83-1.85-1.79-3.16l0.42-11.99c0.03-0.83-0.24-1.64-0.75-2.28c-2.57-3.23-2.49-7.89,0.18-11.03l12.47-14.69
								c0.1-0.12,0.22-0.24,0.33-0.34c0.14-0.12,0.25-0.2,0.27-0.22c0.4-0.28,6.81-5.24,7.67-5.84c3.09-2.17,16.63-5.87,27.57,2.71
								c7.79,6.12,12.26,16.9,9.77,25.88C877.34,168.32,869.38,172.35,853.47,180.43z"/>
						</g>
					</g>
					<g class="st17">
						<g class="st18">
							<path class="st19" d="M877.32,180.74c0.77-1.57,2.31-3.99,3.14-5.99c0,0,0,0,0,0c3.48,0.18,4.32-0.95,7.27-3.12
								c6.39-4.72,9-13.36,5.75-20.7c-1.9-4.3-5.19-7.26-8.96-8.8c0,0,0,0,0,0c12.02-18.38-22.98-47.94-46.49-28.77c0,0,0,0,0,0
								c-3.95-0.84-8.27,0.19-11.54,3.38c-4.05,3.94-5.12,10.31-2.6,15.41c1.39,2.83,3.58,4.83,6.08,6.02c2.6,1.61,5.88,3,9.57,3.92
								c0.13,0.03,0.25,0.05,0.38,0.08c5.31,1.62,11.61,1.49,11.29,1.46l0,0c0,0-11.08,3.16-2.62,25.02
								C857.03,190.52,872.09,191.43,877.32,180.74z"/>
						</g>
					</g>
					<g>
						<g>
							<path class="st6" d="M849.44,182.47c0,0,19.41-8.65,14.74-17.38c-4.67-8.73-18.01,6.19-18.01,6.19L849.44,182.47z"/>
						</g>
					</g>
				</g>
			</g>
			<g>
				<g>
					<polygon class="st9" points="508.67,328.77 829.58,374.19 815.77,476.18 494.86,430.76 					"/>
				</g>
				<g>
					<g>
						<polygon class="st9" points="815.1,477.62 508.01,330.21 509.34,327.34 816.43,474.74 						"/>
					</g>
					<g>
						<polygon class="st9" points="495.11,432.33 494.6,429.2 829.33,372.62 829.84,375.75 						"/>
					</g>
				</g>
			</g>
			<g>
				<g>
					<g>
						<path class="st20" d="M517.75,415.64l17.32-27.75c0,0-20.6-6.22-27.15-2.87c-6.55,3.35-16.38,33.49-16.38,33.49L517.75,415.64
							z"/>
					</g>
					<g>
						<polygon class="st11" points="475.15,742.45 518.22,625.7 452.68,616.13 491.07,578.8 573.45,606.56 491.07,752.98 						"/>
					</g>
					<g>
						<path class="st13" d="M422.72,575.93c-1.79-25.86,14.96-39.24,20.21-64.83c6.02-29.32,1.65-70.82,17.24-99.77
							c41.68-6.99,84.71-1.16,88.13,7.14c0,0-4.87,39.56-7.42,50.9c-2.54,11.34-21.54,43.33-21.54,43.33l3.55,61.32L422.72,575.93z"
							/>
					</g>
					<g>
						<path class="st15" d="M547.6,424.08c-9.13,2.83-18.3,7.64-22.46,16.73c-5.46,11.94-1.04,26.43-1.37,39.05
							c-0.28,10.35-6.08,18.77-10.03,27.94c-5.25,12.21-4.09,25.26-4.66,38.23c-0.15,3.51,0.05,7.83-1.21,11.25
							c0.11,5.66,0.18,11.36-0.03,17.02l15.06-0.29l-3.55-61.33c0,0,19-31.98,21.54-43.33C542.84,460.67,546.16,435.4,547.6,424.08z
							"/>
					</g>
					<g>
						<path class="st12" d="M422.72,575.93c0,0,2.81,40.19,29.96,40.19c27.15,0,99.24-9.57,99.24-9.57l30.9,161.73h15.92
							c0,0,18.72-158.86-7.49-183.74C565.03,559.66,422.72,575.93,422.72,575.93z"/>
					</g>
					<g>
						<path class="st19" d="M556.5,366.21c-10.1,13.96-29.36,16.92-43.02,6.59c-13.66-10.32-16.55-30.01-6.45-43.97
							c10.1-13.96,29.36-16.92,43.02-6.59C563.71,332.55,566.6,352.24,556.5,366.21z"/>
					</g>
					<g>
						<path class="st6" d="M538.44,324.27c0,0,19.11,5.64,15.76,38.18c0,0-4.44,14.15,2.87,20.87c0,0-4.22,4.97-8.92,6.28
							c0,0-6.98,13.28-11.62,12.87c-0.71-0.06-31.11-10.88-24.02-32.14c0,0-16.72-9.91-10.6-24.56
							C508.03,331.11,523.36,319.31,538.44,324.27z"/>
					</g>
					<g>
						<path class="st16" d="M598.73,768.29c0,0,36.51,34.45,30.9,39.24c-5.62,4.79-47.75-21.05-47.75-21.05l0.94-18.18H598.73z"/>
					</g>
					<g>
						<path class="st16" d="M491.07,752.98c0,0,13.11,27.75,10.3,36.37l-35.58-32.54l9.36-14.36L491.07,752.98z"/>
					</g>
				</g>
				<g>
					<g>
						<path class="st6" d="M552.32,418.47c7.62,9.53,15.6,78.32,15.6,78.32l42.49-32.87l18.08,5.18c0,0-51.52,71.46-70.7,71.46
							c-19.18,0-37.06-108.45-37.06-108.45C520.32,412.79,544.7,408.93,552.32,418.47z"/>
					</g>
					<g>
						<path class="st13" d="M562.18,456.38c-2.83-16.86-6.38-33.56-9.86-37.91c-7.62-9.53-32-5.67-31.6,13.63
							c0,0,3.16,19.13,8.23,41.31C540.61,469.14,551.4,462.78,562.18,456.38z"/>
					</g>
					<g>
						<path class="st6" d="M651.77,428.6c-1.51-2.15-19.77,15.86-19.77,15.86l5.4-11.17c5.81-6.12,10.29-11.36,8.67-13.18
							c-1.62-1.82-13.15,8.84-13.15,8.84l-7.8,10.94l3.59-16c10.68-15.68,3.16-16.76,3.16-16.76l-10.17,16.45l-4.46,14.63
							c5.61-20.02-4.65-21.78-4.39-19.72c0.26,2.06-1.63,12.78-1.63,12.78c1.16,4.24-0.54,13.26-0.54,13.26
							c1.5,4.04,0.65,12.87-0.28,19.38c0.55,1.96,1.38,3.64,2.73,5.05c4.94,2.35,10.34,2.86,15.35,0.13
							c0.97-3.68,2.62-9.74,3.44-11.82l6.14-11.12c0,0,1.47-0.51,12.21-11.93C651.43,432.99,653.28,430.75,651.77,428.6z"/>
					</g>
				</g>
				<g>
					<path class="st19" d="M471.31,355.82c-0.68-26.06,15.55-48.27,37.93-50.7c23.78-2.59,45.49,18.12,48.49,46.26
						c1.68,15.71-6.52,23.72-15.93,32.35c6.03,9.57,8.55,21.42,6.09,33.3c-4.79,23.13-26.82,38.38-49.52,34.83
						c-3.66,2.88-8.03,4.79-13.5,5.39c-23.78,2.59-45.49-18.12-48.49-46.26C433.49,383.93,448.97,359.93,471.31,355.82z"/>
				</g>
			</g>
			<g>
				<g>
					<g>
						<rect x="471.94" y="639.68" class="st8" width="6.24" height="168.43"/>
					</g>
					<g>
						<rect x="444.48" y="801.73" class="st8" width="61.17" height="6.38"/>
					</g>
				</g>
				<g>
					<path class="st0" d="M523.63,640.35h-97.14c-1.1,0-1.99-0.89-1.99-1.99v-24.73c0-1.1,0.89-1.99,1.99-1.99h97.14
						c1.1,0,1.99,0.89,1.99,1.99v24.73C525.62,639.46,524.73,640.35,523.63,640.35z"/>
				</g>
			</g>
		</g>
	</g>
	<g>
	</g>
	<g>
	</g>
	<g>
	</g>
	<g>
	</g>
	<g>
	</g>
	<g>
	</g>
</g>
</svg>
